<svg id="Capa_1" enable-background="new 0 0 512 512" height="512" viewBox="0 0 512 512" width="512" xmlns="http://www.w3.org/2000/svg"><g><path d="m256 0c-140.7 0-256 115.3-256 256s115.3 256 256 256 256-115.3 256-256-115.3-256-256-256z" fill="#f3f5f9" id="id_119"></path><path d="m512 256c0 140.7-115.3 256-256 256v-512c140.7 0 256 115.3 256 256z" fill="#e1e6f0" id="id_120"></path><circle cx="256" cy="256" fill="#ff3333" r="226" id="id_121"></circle><path d="m482 256c0 124.2-101.8 226-226 226v-452c124.2 0 226 101.8 226 226z" fill="#ff2b2b" id="id_122"></path><g><path d="m376 211h-75v-75c0-8.401-6.599-15-15-15h-60c-8.401 0-15 6.599-15 15v75h-75c-8.401 0-15 6.599-15 15v60c0 8.399 6.599 15 15 15h75v75c0 8.399 6.599 15 15 15h60c8.401 0 15-6.601 15-15v-75h75c8.401 0 15-6.601 15-15v-60c0-8.401-6.599-15-15-15z" fill="#f3f5f9" id="id_123"></path></g><path d="m391 226v60c0 8.399-6.599 15-15 15h-75v75c0 8.399-6.599 15-15 15h-30v-270h30c8.401 0 15 6.599 15 15v75h75c8.401 0 15 6.599 15 15z" fill="#e1e6f0" id="id_124"></path></g></svg>